<?xml version="1.0" standalone="no"?><!DOCTYPE svg PUBLIC "-//W3C//DTD SVG 1.1//EN" "http://www.w3.org/Graphics/SVG/1.1/DTD/svg11.dtd"><svg t="1627117884473" class="icon" viewBox="0 0 1025 1024" version="1.1" xmlns="http://www.w3.org/2000/svg" p-id="1752" xmlns:xlink="http://www.w3.org/1999/xlink" width="32.03125" height="32"><defs><style type="text/css">@font-face { font-family: feedback-iconfont; src: url("//at.alicdn.com/t/font_1031158_1uhr8ri0pk5.eot?#iefix") format("embedded-opentype"), url("//at.alicdn.com/t/font_1031158_1uhr8ri0pk5.woff2") format("woff2"), url("//at.alicdn.com/t/font_1031158_1uhr8ri0pk5.woff") format("woff"), url("//at.alicdn.com/t/font_1031158_1uhr8ri0pk5.ttf") format("truetype"), url("//at.alicdn.com/t/font_1031158_1uhr8ri0pk5.svg#iconfont") format("svg"); }
</style></defs><path d="M892.88704 273.40288c-16.93696-1.664-31.61088 10.66496-33.2288 27.39712l-44.48768 462.50496c-1.60256 16.7424 10.66496 31.61088 27.40224 33.2288 0.9984 0.08704 1.98144 0.13312 2.944 0.13312 15.50848 0 28.76928-11.79136 30.28992-27.54048l44.48768-462.50496C921.89184 289.88416 909.62432 275.00544 892.88704 273.40288z" p-id="1753" fill="#37429B"></path><path d="M828.94848 848.0256c-16.81408 0-30.44864 13.63456-30.44864 30.45376 0 31.1808-14.8736 64.49664-56.59648 64.49664L287.71328 942.976c-39.6032 0-71.81312-28.93312-71.81312-64.49664 0-1.00352-0.04608-1.98144-0.14336-2.97984L159.48288 300.73344c-1.6384-16.7424-16.64-29.08672-33.26976-27.33568-16.7424 1.63328-28.9792 16.53248-27.33568 33.26976l56.12544 573.40416c0.90624 68.4288 60.09344 123.81184 132.7104 123.81184l454.19008 0c69.18656 0 117.49376-51.56352 117.49376-125.39904C859.40224 861.66016 845.76256 848.0256 828.94848 848.0256z" p-id="1754" fill="#37429B"></path><path d="M414.91968 766.21312 414.91968 312.96c0-16.81408-13.63456-30.44864-30.44864-30.44864s-30.44864 13.63456-30.44864 30.44864l0 453.25312c0 16.8192 13.63456 30.45376 30.44864 30.45376S414.91968 783.03744 414.91968 766.21312z" p-id="1755" fill="#37429B"></path><path d="M655.60576 766.21312 655.60576 312.96c0-16.81408-13.62944-30.44864-30.44864-30.44864-16.80896 0-30.44864 13.63456-30.44864 30.44864l0 453.25312c0 16.8192 13.63968 30.45376 30.44864 30.45376C641.97632 796.672 655.60576 783.03744 655.60576 766.21312z" p-id="1756" fill="#37429B"></path><path d="M994.14016 186.77248l-266.83392 0c-2.49856-167.67488-130.02752-167.77728-214.74816-167.77728-84.73088 0-212.25984 0.1024-214.75328 167.77728L30.96576 186.77248c-16.81408 0-30.44864 13.63456-30.44864 30.44864 0 16.8192 13.63456 30.45376 30.44864 30.45376l963.1744 0c16.8192 0 30.44864-13.63456 30.44864-30.45376C1024.5888 200.40704 1010.95936 186.77248 994.14016 186.77248zM512.55808 79.89248c105.21088 0 152.22272 10.42432 153.81504 106.88L358.73792 186.77248C360.32512 90.3168 407.3472 79.89248 512.55808 79.89248z" p-id="1757" fill="#37429B"></path></svg>