<?xml version="1.0" standalone="no"?><!DOCTYPE svg PUBLIC "-//W3C//DTD SVG 1.1//EN" "http://www.w3.org/Graphics/SVG/1.1/DTD/svg11.dtd"><svg t="1623919767241" class="icon" viewBox="0 0 1024 1024" version="1.1" xmlns="http://www.w3.org/2000/svg" p-id="2401" xmlns:xlink="http://www.w3.org/1999/xlink" width="200" height="200"><defs><style type="text/css"></style></defs><path d="M430 266m-50 0a50 50 0 1 0 100 0 50 50 0 1 0-100 0Z" fill="#444444" p-id="2402"></path><path d="M430 430m-50 0a50 50 0 1 0 100 0 50 50 0 1 0-100 0Z" fill="#444444" p-id="2403"></path><path d="M430 594m-50 0a50 50 0 1 0 100 0 50 50 0 1 0-100 0Z" fill="#444444" p-id="2404"></path><path d="M430 758m-50 0a50 50 0 1 0 100 0 50 50 0 1 0-100 0Z" fill="#444444" p-id="2405"></path><path d="M594 266m-50 0a50 50 0 1 0 100 0 50 50 0 1 0-100 0Z" fill="#444444" p-id="2406"></path><path d="M594 430m-50 0a50 50 0 1 0 100 0 50 50 0 1 0-100 0Z" fill="#444444" p-id="2407"></path><path d="M594 594m-50 0a50 50 0 1 0 100 0 50 50 0 1 0-100 0Z" fill="#444444" p-id="2408"></path><path d="M594 758m-50 0a50 50 0 1 0 100 0 50 50 0 1 0-100 0Z" fill="#444444" p-id="2409"></path></svg>