<?xml version="1.0" standalone="no"?><!DOCTYPE svg PUBLIC "-//W3C//DTD SVG 1.1//EN" "http://www.w3.org/Graphics/SVG/1.1/DTD/svg11.dtd"><svg t="1627117825660" class="icon" viewBox="0 0 1024 1024" version="1.1" xmlns="http://www.w3.org/2000/svg" p-id="1993" xmlns:xlink="http://www.w3.org/1999/xlink" width="32" height="32"><defs><style type="text/css">@font-face { font-family: feedback-iconfont; src: url("//at.alicdn.com/t/font_1031158_1uhr8ri0pk5.eot?#iefix") format("embedded-opentype"), url("//at.alicdn.com/t/font_1031158_1uhr8ri0pk5.woff2") format("woff2"), url("//at.alicdn.com/t/font_1031158_1uhr8ri0pk5.woff") format("woff"), url("//at.alicdn.com/t/font_1031158_1uhr8ri0pk5.ttf") format("truetype"), url("//at.alicdn.com/t/font_1031158_1uhr8ri0pk5.svg#iconfont") format("svg"); }
</style></defs><path d="M918.73792 275.42528c-16.32256 0-29.54752 13.23008-29.54752 29.54752l0 385.32608-101.43232 0c-97.77152 0-177.30048 79.52896-177.30048 177.29536l0 121.6768c0 13.6192 10.6496 34.53952 33.1008 34.53952l48.44032 0c62.26944 0 256.29184-194.01728 256.29184-256.29184L948.29056 304.9728C948.29056 288.65536 935.05024 275.42528 918.73792 275.42528zM691.99872 964.71552l-22.44096 0 0-97.12128c0-65.17248 53.0176-118.1952 118.20032-118.1952l101.43232 0 0 17.1008C880.20992 806.3744 727.71072 959.2576 691.99872 964.71552z" p-id="1994" fill="#37429B"></path><path d="M523.47904 964.71552 199.8848 964.71552c-76.13952 0-138.07616-61.95712-138.07616-138.112L61.80864 304.98304c0-76.13952 61.94176-138.0864 138.07616-138.0864l551.20384 0c16.32256 0 29.54752-13.23008 29.54752-29.54752s-13.23008-29.54752-29.54752-29.54752L199.8848 107.8016c-108.7232 0-197.17632 88.45824-197.17632 197.18656l0 521.62048c0 108.74368 88.45312 197.20704 197.17632 197.20704l323.59424 0c16.32768 0 29.55776-13.23008 29.55776-29.54752C553.04192 977.9456 539.81184 964.71552 523.47904 964.71552z" p-id="1995" fill="#37429B"></path><path d="M1015.41376 12.99968c-11.52-11.59168-30.23872-11.64288-41.78944-0.13824L434.00704 548.91008c-11.57632 11.49952-11.63264 30.21824-0.13824 41.78944 5.78048 5.8112 13.36832 8.7296 20.9664 8.7296 7.53152 0 15.06304-2.86208 20.82816-8.59136L1015.26528 54.78912C1026.85696 43.29472 1026.91328 24.576 1015.41376 12.99968z" p-id="1996" fill="#37429B"></path></svg>