<?xml version="1.0" standalone="no"?>
<!DOCTYPE svg PUBLIC "-//W3C//DTD SVG 1.1//EN" "http://www.w3.org/Graphics/SVG/1.1/DTD/svg11.dtd">
<svg t="1626767561622" class="icon" viewBox="0 0 1024 1024" version="1.1" xmlns="http://www.w3.org/2000/svg" p-id="9089" xmlns:xlink="http://www.w3.org/1999/xlink" width="32" height="32">
<defs><style type="text/css"></style></defs>
<path d="M512 672l379.733333-189.866667c17.066667-6.4 34.133333 0 42.666667 14.933334 8.533333 14.933333 2.133333 34.133333-12.8 42.666666l-394.666667 196.266667c-8.533333 4.266667-19.2 4.266667-29.866666 0L104.533333 541.866667c-14.933333-8.533333-21.333333-27.733333-12.8-42.666667s27.733333-23.466667 42.666667-14.933333L512 672z m0 0" p-id="9090"></path>
<path d="M512 868.266667l379.733333-189.866667c17.066667-6.4 34.133333 0 42.666667 14.933333 8.533333 14.933333 2.133333 34.133333-12.8 42.666667l-394.666667 196.266667c-8.533333 4.266667-19.2 4.266667-29.866666 0L104.533333 738.133333c-14.933333-8.533333-21.333333-27.733333-12.8-42.666666s27.733333-23.466667 42.666667-14.933334L512 868.266667zM104.533333 343.466667c-12.8-4.266667-19.2-14.933333-19.2-27.733334 0-12.8 6.4-23.466667 19.2-29.866666l394.666667-196.266667c8.533333-4.266667 19.2-4.266667 29.866667 0l394.666666 196.266667c10.666667 6.4 19.2 17.066667 19.2 29.866666 0 12.8-6.4 23.466667-19.2 29.866667l-394.666666 196.266667c-8.533333 4.266667-19.2 4.266667-29.866667 0L104.533333 343.466667zM512 475.733333l320-160-320-160-320 160 320 160z m0 0" p-id="9091"></path>
</svg>