<?xml version="1.0" standalone="no"?>
<!DOCTYPE svg PUBLIC "-//W3C//DTD SVG 1.1//EN" "http://www.w3.org/Graphics/SVG/1.1/DTD/svg11.dtd">
<svg t="1626767894518" class="icon" viewBox="0 0 1024 1024" version="1.1" xmlns="http://www.w3.org/2000/svg" p-id="11259" xmlns:xlink="http://www.w3.org/1999/xlink" width="32" height="32">
<defs><style type="text/css"></style></defs>
<path d="M779.997242 65.311495 243.998665 65.311495c-98.711186 0-178.709171 80.08599-178.709171 178.709171l0 535.9996c0 98.713232 79.997985 178.667216 178.709171 178.667216l535.998577 0c98.711186 0 178.711218-79.953983 178.711218-178.667216L958.70846 244.020666C958.70846 145.397485 878.708428 65.311495 779.997242 65.311495zM869.286848 735.353974c0 58.276265-37.380352 107.346867-89.289606 125.799124l0 8.244778-44.665269 0c15.703657 0 30.621415-3.227508 44.665269-8.244778l0-349.131609-89.289606 0 0 357.376387L556.620755 869.397876 556.620755 288.643979l-89.245603 0 0 580.752874L333.288271 869.396853 333.288271 422.73086l-89.289606 0 0 438.421214c14.002922 5.016247 28.92068 8.244778 44.623313 8.244778l-44.623313 0 0-8.244778c-51.907207-18.451234-89.289606-67.521836-89.289606-125.799124L154.709059 288.643979c0-73.979922 59.932997-133.912919 133.912919-133.912919l446.708971 0c74.021877 0 133.954875 59.932997 133.954875 133.912919L869.285824 735.353974z" p-id="11260"></path>
</svg>